Coordinates
version=1
nRows=29
nColumns=24
inDegrees=yes

Units are S.I. units (second, meters, Newtons, ...)
Angles are in degrees.

endheader
time	pelvis_tilt	pelvis_list	pelvis_rotation	pelvis_tx	pelvis_ty	pelvis_tz	hip_flexion_r	hip_adduction_r	hip_rotation_r	knee_angle_r	ankle_angle_r	subtalar_angle_r	mtp_angle_r	hip_flexion_l	hip_adduction_l	hip_rotation_l	knee_angle_l	ankle_angle_l	subtalar_angle_l	mtp_angle_l	lumbar_extension	lumbar_bending	lumbar_rotation
      0.69600000	     -3.92487853	     -3.69520218	      2.94392307	     -0.42893462	      0.90373153	      0.33889884	     15.86952695	      9.36552624	     -2.35087539	    -23.83487925	     11.21604865	     -2.49481865	      4.52986658	     19.34579145	     -7.27189805	     -5.96453497	    -75.53034740	     -4.50108343	    -11.92927555	      0.48645140	     -3.07252173	      4.52745390	      0.06007392
      0.70016667	     -4.01415404	     -3.51567141	      2.87603155	     -0.42365251	      0.90478196	      0.33887526	     15.33544453	      9.20211116	     -2.20337646	    -23.36513725	     11.26930742	     -2.39622313	      4.53375485	     20.14061414	     -6.98683292	     -6.03627473	    -75.47578338	     -4.21706568	    -12.00352282	      0.46416555	     -2.97551606	      4.34402522	      0.19986106
      0.70433333	     -4.13078279	     -3.30719907	      2.76753715	     -0.41840853	      0.90576584	      0.33889292	     14.85317029	      9.01234869	     -2.01692459	    -22.94181797	     11.29646702	     -2.29791966	      4.54063014	     20.93569139	     -6.66831237	     -6.13897571	    -75.33953472	     -3.90582935	    -12.02390074	      0.41102101	     -2.88223889	      4.13055791	      0.51185659
      0.70850000	     -4.19478815	     -3.11687486	      2.65784737	     -0.41310322	      0.90681831	      0.33892637	     14.28432851	      8.84653157	     -1.82952187	    -22.45824307	     11.36710703	     -2.20139596	      4.55049918	     21.64819153	     -6.38647609	     -6.25591748	    -75.12030617	     -3.64704667	    -12.00168972	      0.34263076	     -2.82309563	      3.92765983	      0.80309567
      0.71266667	     -4.25469973	     -2.91409260	      2.53533948	     -0.40779399	      0.90787131	      0.33894654	     13.71067265	      8.66328252	     -1.63880807	    -21.96992588	     11.37062735	     -2.10432470	      4.55393773	     22.32677191	     -6.08493957	     -6.38014906	    -74.81519030	     -3.35865690	    -11.97522512	      0.31910668	     -2.76772206	      3.73235334	      0.93400811
      0.71683333	     -4.29920607	     -2.70689336	      2.39190586	     -0.40248102	      0.90891985	      0.33899566	     13.11949277	      8.47825425	     -1.42991907	    -21.47884078	     11.38349440	     -2.01897078	      4.55741231	     22.96138534	     -5.79122377	     -6.53021914	    -74.43354086	     -3.06747769	    -11.89523791	      0.29993859	     -2.73490409	      3.51837552	      1.13740870
      0.72100000	     -4.33225883	     -2.50242264	      2.23511182	     -0.39715318	      0.90995911	      0.33906162	     12.51150043	      8.29610893	     -1.21484150	    -20.97580980	     11.38754394	     -1.93303869	      4.56028968	     23.55850353	     -5.50874076	     -6.69477779	    -73.97701666	     -2.77532444	    -11.78908277	      0.28859649	     -2.71010243	      3.30751580	      1.35819689
      0.72516667	     -4.34735553	     -2.29605653	      2.06205742	     -0.39182995	      0.91099391	      0.33915493	     11.88354649	      8.11301093	     -0.98723780	    -20.46628842	     11.38023561	     -1.85960819	      4.56270931	     24.11141189	     -5.23454050	     -6.87570361	    -73.44856172	     -2.47914194	    -11.66236771	      0.28437394	     -2.70984863	      3.09745335	      1.59718171
      0.72933333	     -4.34879257	     -2.09338429	      1.87715732	     -0.38650458	      0.91201775	      0.33926178	     11.23810375	      7.93206546	     -0.75151243	    -19.94543261	     11.36319005	     -1.78524921	      4.56473723	     24.62584024	     -4.97295787	     -7.07018272	    -72.85013524	     -2.18025416	    -11.51635582	      0.28732607	     -2.72069659	      2.89129836	      1.84253560
      0.73350000	     -4.33665742	     -1.89253198	      1.67889386	     -0.38118775	      0.91302165	      0.33938836	     10.57938668	      7.75117649	     -0.51027046	    -19.42111056	     11.33530455	     -1.71875216	      4.56610339	     25.10332715	     -4.72338376	     -7.27821228	    -72.18519964	     -1.87599864	    -11.35625139	      0.29765837	     -2.75120616	      2.68598614	      2.09642731
      0.73766667	     -4.29277552	     -1.71989767	      1.48374495	     -0.37585731	      0.91402353	      0.33954174	      9.86981330	      7.60310278	     -0.26109348	    -18.85587075	     11.32181059	     -1.69360524	      4.56983676	     25.53124259	     -4.51800603	     -7.48392349	    -71.46630184	     -1.56779540	    -11.16208591	      0.32158046	     -2.80886416	      2.51096695	      2.44938978
      0.74183333	     -4.25930001	     -1.52768468	      1.26791204	     -0.37055790	      0.91497473	      0.33969757	      9.18953726	      7.42527724	     -0.01555880	    -18.32020831	     11.27308824	     -1.63927751	      4.57235964	     25.94428784	     -4.29345151	     -7.70964341	    -70.67365061	     -1.25963768	    -10.98982591	      0.35261626	     -2.86010004	      2.31354304	      2.69683047
      0.74600000	     -4.21060794	     -1.34759651	      1.04705258	     -0.36527151	      0.91589994	      0.33986704	      8.49235436	      7.25665419	      0.22960456	    -17.77363803	     11.21226586	     -1.58304649	      4.57548185	     26.32293853	     -4.09002822	     -7.93882921	    -69.82286738	     -0.94706023	    -10.80662050	      0.39216240	     -2.93239769	      2.12824920	      2.95240576
      0.75016667	     -4.17860403	     -1.15617781	      0.80770669	     -0.36002582	      0.91675524	      0.34003960	      7.83491427	      7.06727199	      0.46497161	    -17.26085934	     11.11786750	     -1.49716323	      4.57656291	     26.69790973	     -3.87694009	     -8.18251248	    -68.90496487	     -0.63929723	    -10.64558929	      0.42404082	     -2.99047949	      1.93285283	      3.13697978
      0.75433333	     -4.08688030	     -1.00929223	      0.58910128	     -0.35474445	      0.91763440	      0.34022873	      7.07685834	      6.92808703	      0.71095974	    -16.67234916	     11.07248611	     -1.47634686	      4.58242270	     26.99685009	     -3.72344285	     -8.40888268	    -67.94862037	     -0.33050403	    -10.44769659	      0.48008714	     -3.10717879	      1.78095047	      3.46067256
      0.75850000	     -4.04181928	     -0.83530459	      0.34275772	     -0.34953215	      0.91839992	      0.34041488	      6.41310437	      6.74679418	      0.93846788	    -16.15923492	     10.96601060	     -1.39798507	      4.58555421	     27.32168320	     -3.53890874	     -8.65518292	    -66.91774200	     -0.02795737	    -10.29237659	      0.52177223	     -3.18028599	      1.60227507	      3.65061652
      0.76266667	     -3.94747717	     -0.70967954	      0.11958459	     -0.34430748	      0.91916537	      0.34060951	      5.66113385	      6.61789998	      1.16621076	    -15.56770522	     10.90081213	     -1.36607981	      4.59617738	     27.58805037	     -3.41391167	     -8.87759603	    -65.85727068	      0.27017473	    -10.11788735	      0.59047690	     -3.30622413	      1.47211812	      3.95933401
      0.76683333	     -3.89849755	     -0.55280702	     -0.12907406	     -0.33912832	      0.91981933	      0.34079906	      5.00364916	      6.44303330	      1.37311926	    -15.06108364	     10.79023524	     -1.27581000	      4.60221764	     27.87499443	     -3.25512504	     -9.12267024	    -64.72029899	      0.55470611	     -9.98024414	      0.63445061	     -3.38418470	      1.30791062	      4.13307355
      0.77100000	     -3.79722827	     -0.44958198	     -0.34875354	     -0.33394038	      0.92047186	      0.34098661	      4.25081635	      6.32563315	      1.58611027	    -14.47044744	     10.72261385	     -1.22935273	      4.61966177	     28.10168545	     -3.15436818	     -9.33189940	    -63.55862839	      0.83270820	     -9.82453960	      0.71043726	     -3.52437650	      1.20505187	      4.43666668
      0.77516667	     -3.72928113	     -0.33666031	     -0.58193193	     -0.32879372	      0.92102108	      0.34115951	      3.56262826	      6.18771192	      1.77440358	    -13.92815931	     10.62288120	     -1.15400165	      4.64064695	     28.34312360	     -3.04170992	     -9.54822235	    -62.33466361	      1.09938554	     -9.69527820	      0.78900057	     -3.62954087	      1.08982358	      4.67041902
      0.77933333	     -3.65933890	     -0.23384091	     -0.80525426	     -0.32364867	      0.92150531	      0.34132189	      2.87441957	      6.05244208	      1.92806983	    -13.38778890	     10.54716766	     -1.05647546	      4.66196194	     28.56638267	     -2.94079750	     -9.75784053	    -61.06227350	      1.34114626	     -9.57584370	      0.85635172	     -3.72485104	      0.98210545	      4.87658304
      0.78350000	     -3.59484375	     -0.14389691	     -1.02521394	     -0.31852632	      0.92191786	      0.34146646	      2.19864803	      5.92531408	      2.07072286	    -12.85446946	     10.46434669	     -0.94512032	      4.68698887	     28.78008685	     -2.84813547	     -9.95168666	    -59.74329515	      1.57333213	     -9.46295832	      0.92311522	     -3.82613026	      0.89151547	      5.08665350
      0.78766667	     -3.55241365	     -0.05381881	     -1.24751936	     -0.31343671	      0.92223993	      0.34159904	      1.56754937	      5.79065444	      2.18582962	    -12.35524586	     10.35910498	     -0.80716220	      4.70661047	     28.99890448	     -2.75290525	    -10.13787261	    -58.36798276	      1.78770381	     -9.35282915	      0.97053319	     -3.90259352	      0.80281997	      5.25051143
      0.79183333	     -3.50239088	      0.01632748	     -1.45487806	     -0.30834411	      0.92250327	      0.34171556	      0.91840101	      5.67300721	      2.28315079	    -11.83508525	     10.28133491	     -0.65638674	      4.72943198	     29.19546245	     -2.67607974	    -10.30605415	    -56.95553683	      1.98204889	     -9.24815410	      1.01552670	     -3.99018526	      0.73045791	      5.43476735
      0.79600000	     -3.44727138	      0.06772774	     -1.64695894	     -0.30325497	      0.92270277	      0.34179969	      0.26291164	      5.57030572	      2.35298577	    -11.31212171	     10.22195334	     -0.49868464	      4.76148896	     29.37276303	     -2.61099096	    -10.45169465	    -55.50362127	      2.15355632	     -9.14162868	      1.06683069	     -4.08551603	      0.68283227	      5.64078876
      0.80016667	     -3.41681681	      0.11410646	     -1.83595356	     -0.29817955	      0.92280118	      0.34187801	     -0.35240293	      5.46977122	      2.40316503	    -10.81406199	     10.15711218	     -0.32001354	      4.79616344	     29.55859062	     -2.54981557	    -10.58586352	    -54.00639979	      2.30473866	     -9.03193216	      1.11438270	     -4.14923023	      0.64117208	      5.82121064
      0.80433333	     -3.39534780	      0.14915541	     -2.01747252	     -0.29310870	      0.92281888	      0.34193109	     -0.95078218	      5.37625035	      2.42781679	    -10.33049880	     10.10275061	     -0.12332406	      4.83381559	     29.73620729	     -2.49627575	    -10.70367262	    -52.46830885	      2.43044204	     -8.91970369	      1.15837116	     -4.20534192	      0.61078451	      5.99184385
      0.80850000	     -3.38137665	      0.17405135	     -2.18565265	     -0.28803207	      0.92275947	      0.34195889	     -1.53766027	      5.29076149	      2.42335980	     -9.85510715	     10.05959120	      0.09620195	      4.87558591	     29.90483984	     -2.44647360	    -10.80220727	    -50.89220949	      2.53194456	     -8.79972732	      1.20016370	     -4.25203121	      0.59047946	      6.15573930
      0.81266667	     -3.35701579	      0.18364891	     -2.34176903	     -0.28295614	      0.92264351	      0.34195549	     -2.13228587	      5.21733751	      2.39637475	     -9.39023768	     10.07029672	      0.36011063	      4.95215009	     30.04509797	     -2.40523031	    -10.87956837	    -49.28193950	      2.61244789	     -8.67979812	      1.26439995	     -4.31817251	      0.59770921	      6.35932554
